G04 DesignSpark PCB Gerber Version 10.0 Build 5299*
%FSLAX35Y35*%
%MOIN*%
%ADD115R,0.05600X0.13120*%
%ADD114R,0.04537X0.02569*%
%ADD113C,0.03750*%
%ADD116C,0.11112*%
X0Y0D02*
D02*
D113*
X30250Y124000D03*
Y157750D03*
X40250Y12000D03*
Y157750D03*
X50250Y12000D03*
Y157750D03*
X60250Y12000D03*
Y157750D03*
X70250Y12000D03*
Y157750D03*
X80250Y12000D03*
Y157750D03*
X90250Y12000D03*
Y157750D03*
X100250Y12000D03*
Y157750D03*
X110250Y12000D03*
Y157750D03*
X120250Y12000D03*
Y157750D03*
X130250Y12000D03*
Y157750D03*
X140250Y12000D03*
Y157750D03*
X150250Y12000D03*
Y157750D03*
X160250Y12000D03*
Y157750D03*
X170250Y12000D03*
Y157750D03*
X180250Y12000D03*
Y157750D03*
X190250D03*
D02*
D114*
X35247Y11044D03*
Y16950D03*
X45247Y11044D03*
Y16950D03*
X55247Y11044D03*
Y16950D03*
X65247Y11044D03*
Y16950D03*
X75247Y11044D03*
Y16950D03*
X85247Y11044D03*
Y16950D03*
X95247Y11044D03*
Y16950D03*
X105247Y11044D03*
Y16950D03*
X115247Y11044D03*
Y16950D03*
X125247Y11044D03*
Y16950D03*
X135247Y11044D03*
Y16950D03*
X145247Y11044D03*
Y16950D03*
X155247Y11044D03*
Y16950D03*
X165247Y11044D03*
Y16950D03*
X175247Y11044D03*
Y16950D03*
X185247Y11044D03*
Y16950D03*
D02*
D115*
X30250Y132689D03*
Y149185D03*
X40250Y132689D03*
Y149185D03*
X50250Y132689D03*
Y149185D03*
X60250Y132689D03*
Y149185D03*
X70250Y132689D03*
Y149185D03*
X80250Y132689D03*
Y149185D03*
X90250Y132689D03*
Y149185D03*
X100250Y132689D03*
Y149185D03*
X110250Y132689D03*
Y149185D03*
X120250Y132689D03*
Y149185D03*
X130250Y132689D03*
Y149185D03*
X140250Y132689D03*
Y149185D03*
X150250Y132689D03*
Y149185D03*
X160250Y132689D03*
Y149185D03*
X170250Y132689D03*
Y149185D03*
X180250Y132689D03*
Y149185D03*
X190250Y132689D03*
Y149185D03*
D02*
D116*
X35250Y166134D03*
X185250D03*
X0Y0D02*
M02*
