G04 DesignSpark PCB Gerber Version 10.0 Build 5299*
%FSLAX35Y35*%
%MOIN*%
%ADD10C,0.00500*%
%ADD83C,0.10000*%
X0Y0D02*
D02*
D10*
X40250Y133687D02*
X41813Y129937D01*
X43375Y133687D01*
X40250Y167437D02*
X41813Y163687D01*
X43375Y167437D01*
X45250Y175821D02*
X48375D01*
X45250Y172071D01*
X48375D01*
X50250Y21687D02*
X51813Y17937D01*
X53375Y21687D01*
X50250Y167437D02*
X51813Y163687D01*
X53375Y167437D01*
X60250Y21687D02*
X61813Y17937D01*
X63375Y21687D01*
X60250Y167437D02*
X61813Y163687D01*
X63375Y167437D01*
X70250Y21687D02*
X71813Y17937D01*
X73375Y21687D01*
X70250Y167437D02*
X71813Y163687D01*
X73375Y167437D01*
X80250Y21687D02*
X81813Y17937D01*
X83375Y21687D01*
X80250Y167437D02*
X81813Y163687D01*
X83375Y167437D01*
X90250Y21687D02*
X91813Y17937D01*
X93375Y21687D01*
X90250Y167437D02*
X91813Y163687D01*
X93375Y167437D01*
X100250Y21687D02*
X101813Y17937D01*
X103375Y21687D01*
X100250Y167437D02*
X101813Y163687D01*
X103375Y167437D01*
X110250Y21687D02*
X111813Y17937D01*
X113375Y21687D01*
X110250Y167437D02*
X111813Y163687D01*
X113375Y167437D01*
X120250Y21687D02*
X121813Y17937D01*
X123375Y21687D01*
X120250Y167437D02*
X121813Y163687D01*
X123375Y167437D01*
X130250Y21687D02*
X131813Y17937D01*
X133375Y21687D01*
X130250Y167437D02*
X131813Y163687D01*
X133375Y167437D01*
X140250Y21687D02*
X141813Y17937D01*
X143375Y21687D01*
X140250Y167437D02*
X141813Y163687D01*
X143375Y167437D01*
X150250Y21687D02*
X151813Y17937D01*
X153375Y21687D01*
X150250Y167437D02*
X151813Y163687D01*
X153375Y167437D01*
X160250Y21687D02*
X161813Y17937D01*
X163375Y21687D01*
X160250Y167437D02*
X161813Y163687D01*
X163375Y167437D01*
X170250Y21687D02*
X171813Y17937D01*
X173375Y21687D01*
X170250Y167437D02*
X171813Y163687D01*
X173375Y167437D01*
X180250Y21687D02*
X181813Y17937D01*
X183375Y21687D01*
X180250Y167437D02*
X181813Y163687D01*
X183375Y167437D01*
X190250Y21687D02*
X191813Y17937D01*
X193375Y21687D01*
X190250Y167437D02*
X191813Y163687D01*
X193375Y167437D01*
X195250Y175821D02*
X198375D01*
X195250Y172071D01*
X198375D01*
X200250Y167437D02*
X201813Y163687D01*
X203375Y167437D01*
D02*
D83*
X30250Y124000D03*
Y157750D03*
X35250Y166134D03*
X40250Y12000D03*
Y157750D03*
X50250Y12000D03*
Y157750D03*
X60250Y12000D03*
Y157750D03*
X70250Y12000D03*
Y157750D03*
X80250Y12000D03*
Y157750D03*
X90250Y12000D03*
Y157750D03*
X100250Y12000D03*
Y157750D03*
X110250Y12000D03*
Y157750D03*
X120250Y12000D03*
Y157750D03*
X130250Y12000D03*
Y157750D03*
X140250Y12000D03*
Y157750D03*
X150250Y12000D03*
Y157750D03*
X160250Y12000D03*
Y157750D03*
X170250Y12000D03*
Y157750D03*
X180250Y12000D03*
Y157750D03*
X185250Y166134D03*
X190250Y157750D03*
X0Y0D02*
M02*
