G04 DesignSpark PCB Gerber Version 10.0 Build 5299*
%FSLAX35Y35*%
%MOIN*%
%ADD109R,0.05000X0.12520*%
%ADD108R,0.03937X0.01969*%
%ADD90C,0.01142*%
%ADD89C,0.03150*%
%ADD110C,0.10512*%
X0Y0D02*
D02*
D89*
X30250Y124000D03*
Y157750D03*
X40250Y12000D03*
Y157750D03*
X50250Y12000D03*
Y157750D03*
X60250Y12000D03*
Y157750D03*
X70250Y12000D03*
Y157750D03*
X80250Y12000D03*
Y157750D03*
X90250Y12000D03*
Y157750D03*
X100250Y12000D03*
Y157750D03*
X110250Y12000D03*
Y157750D03*
X120250Y12000D03*
Y157750D03*
X130250Y12000D03*
Y157750D03*
X140250Y12000D03*
Y157750D03*
X150250Y12000D03*
Y157750D03*
X160250Y12000D03*
Y157750D03*
X170250Y12000D03*
Y157750D03*
X180250Y12000D03*
Y157750D03*
X190250D03*
D02*
D90*
X30250Y124000D02*
Y132689D01*
Y149185D01*
Y157750D01*
X35247Y11044D02*
X39294D01*
X40250Y12000D01*
X35247Y16950D02*
Y19000D01*
X35250Y19003D01*
Y119000D01*
X40250Y124000D01*
Y132689D01*
Y157750D02*
Y149185D01*
X45247Y11044D02*
X49294D01*
X50250Y12000D01*
X45247Y11044D02*
X41206D01*
X40250Y12000D01*
X45247Y16950D02*
Y19000D01*
X50250Y132689D02*
Y124000D01*
X45250Y119000D01*
Y16953D01*
X45247Y16950D01*
X50250Y157750D02*
Y149185D01*
X55247Y11044D02*
X59294D01*
X60250Y12000D01*
X55247Y11044D02*
X51206D01*
X50250Y12000D01*
X55247Y16950D02*
Y19000D01*
X55250Y19003D01*
Y119000D01*
X60250Y124000D01*
Y132689D01*
Y157750D02*
Y149185D01*
X65247Y11044D02*
X69294D01*
X70250Y12000D01*
X65247Y11044D02*
X61206D01*
X60250Y12000D01*
X65247Y16950D02*
Y19000D01*
X70250Y132689D02*
Y124000D01*
X65250Y119000D01*
Y16953D01*
X65247Y16950D01*
X70250Y157750D02*
Y149185D01*
X75247Y11044D02*
X79294D01*
X80250Y12000D01*
X75247Y11044D02*
X71206D01*
X70250Y12000D01*
X75247Y16950D02*
Y19000D01*
X80250Y132689D02*
Y124000D01*
X75250Y119000D01*
Y16953D01*
X75247Y16950D01*
X80250Y157750D02*
Y149185D01*
X85247Y11044D02*
X89294D01*
X90250Y12000D01*
X85247Y11044D02*
X81206D01*
X80250Y12000D01*
X85247Y16950D02*
Y19000D01*
X85250Y19003D01*
Y119000D01*
X90250Y124000D01*
Y132689D01*
Y157750D02*
Y149185D01*
X95247Y11044D02*
X99294D01*
X100250Y12000D01*
X95247Y11044D02*
X91206D01*
X90250Y12000D01*
X95247Y16950D02*
Y19000D01*
X95250Y19003D01*
Y119000D01*
X100250Y124000D01*
Y132689D01*
Y157750D02*
Y149185D01*
X105247Y11044D02*
X109294D01*
X110250Y12000D01*
X105247Y11044D02*
X101206D01*
X100250Y12000D01*
X105247Y16950D02*
Y19000D01*
X105250Y19003D01*
Y119000D01*
X110250Y124000D01*
Y132689D01*
Y157750D02*
Y149185D01*
X115247Y11044D02*
X119294D01*
X120250Y12000D01*
X115247Y11044D02*
X111206D01*
X110250Y12000D01*
X115247Y16950D02*
Y19000D01*
X115250Y19003D01*
Y119000D01*
X120250Y124000D01*
Y132689D01*
Y157750D02*
Y149185D01*
X125247Y11044D02*
X129294D01*
X130250Y12000D01*
X125247Y11044D02*
X121206D01*
X120250Y12000D01*
X125247Y16950D02*
Y19000D01*
X130250Y132689D02*
Y124000D01*
X125250Y119000D01*
Y16953D01*
X125247Y16950D01*
X130250Y157750D02*
Y149185D01*
X135247Y11044D02*
X139294D01*
X140250Y12000D01*
X135247Y11044D02*
X131206D01*
X130250Y12000D01*
X135247Y16950D02*
Y19000D01*
X135250Y19003D01*
Y119000D01*
X140250Y124000D01*
Y132689D01*
Y157750D02*
Y149185D01*
X145247Y11044D02*
X149294D01*
X150250Y12000D01*
X145247Y11044D02*
X141206D01*
X140250Y12000D01*
X145247Y16950D02*
Y19000D01*
X145250Y19003D01*
Y119000D01*
X150250Y124000D01*
Y132689D01*
Y157750D02*
Y149185D01*
X155247Y11044D02*
X159294D01*
X160250Y12000D01*
X155247Y11044D02*
X151206D01*
X150250Y12000D01*
X155247Y16950D02*
Y19000D01*
X155250Y19003D01*
Y119000D01*
X160250Y124000D01*
Y132689D01*
Y157750D02*
Y149185D01*
X165247Y11044D02*
X169294D01*
X170250Y12000D01*
X165247Y11044D02*
X161206D01*
X160250Y12000D01*
X165247Y16950D02*
Y19000D01*
X165250Y19003D01*
Y119000D01*
X170250Y124000D01*
Y132689D01*
Y157750D02*
Y149185D01*
X175247Y11044D02*
X171206D01*
X170250Y12000D01*
X175247Y11044D02*
X179294D01*
X180250Y12000D01*
X175247Y16950D02*
Y19000D01*
X175250Y19003D01*
Y119000D01*
X180250Y124000D01*
Y132689D01*
Y157750D02*
Y149185D01*
X185247Y11044D02*
X181206D01*
X180250Y12000D01*
X185247Y16950D02*
Y19000D01*
X185250Y19003D01*
Y119000D01*
X190250Y124000D01*
Y132689D01*
Y157750D02*
Y149185D01*
D02*
D108*
X35247Y11044D03*
Y16950D03*
X45247Y11044D03*
Y16950D03*
X55247Y11044D03*
Y16950D03*
X65247Y11044D03*
Y16950D03*
X75247Y11044D03*
Y16950D03*
X85247Y11044D03*
Y16950D03*
X95247Y11044D03*
Y16950D03*
X105247Y11044D03*
Y16950D03*
X115247Y11044D03*
Y16950D03*
X125247Y11044D03*
Y16950D03*
X135247Y11044D03*
Y16950D03*
X145247Y11044D03*
Y16950D03*
X155247Y11044D03*
Y16950D03*
X165247Y11044D03*
Y16950D03*
X175247Y11044D03*
Y16950D03*
X185247Y11044D03*
Y16950D03*
D02*
D109*
X30250Y132689D03*
Y149185D03*
X40250Y132689D03*
Y149185D03*
X50250Y132689D03*
Y149185D03*
X60250Y132689D03*
Y149185D03*
X70250Y132689D03*
Y149185D03*
X80250Y132689D03*
Y149185D03*
X90250Y132689D03*
Y149185D03*
X100250Y132689D03*
Y149185D03*
X110250Y132689D03*
Y149185D03*
X120250Y132689D03*
Y149185D03*
X130250Y132689D03*
Y149185D03*
X140250Y132689D03*
Y149185D03*
X150250Y132689D03*
Y149185D03*
X160250Y132689D03*
Y149185D03*
X170250Y132689D03*
Y149185D03*
X180250Y132689D03*
Y149185D03*
X190250Y132689D03*
Y149185D03*
D02*
D110*
X35250Y166134D03*
X185250D03*
X0Y0D02*
M02*
