G04 DesignSpark PCB Gerber Version 10.0 Build 5299*
%FSLAX35Y35*%
%MOIN*%
%ADD129R,0.03937X0.07874*%
%ADD130R,0.03937X0.15748*%
%ADD117C,0.01000*%
%ADD90C,0.01142*%
%ADD127C,0.01200*%
%ADD131R,0.07874X0.03937*%
%ADD120R,0.15748X0.03937*%
X0Y0D02*
D02*
D90*
X31215Y20547D02*
X97421D01*
X102421Y25547D01*
Y329246D01*
X31215Y60547D02*
X87421D01*
X92421Y65547D01*
Y329246D01*
X31215Y100547D02*
X77421D01*
X82421Y105547D01*
Y329246D01*
X31215Y140547D02*
X67421D01*
X72421Y145547D01*
Y329246D01*
X31215Y180547D02*
X57421D01*
X62421Y185547D01*
Y329246D01*
X31215Y220547D02*
X47421D01*
X52421Y225547D01*
Y329246D01*
X31215Y260547D02*
X42421D01*
X47421Y265547D01*
Y315547D01*
X42421Y320547D01*
Y329246D01*
X31215Y300547D02*
X37421D01*
X42421Y305547D01*
Y310547D01*
X32421Y320547D01*
Y329246D01*
D02*
D117*
X22421Y325621D02*
Y323521D01*
X23890Y332995D02*
X25988D01*
X27473Y29078D02*
Y26980D01*
Y32015D02*
Y34114D01*
Y69078D02*
Y66980D01*
Y72015D02*
Y74114D01*
Y109078D02*
Y106980D01*
Y112015D02*
Y114114D01*
Y149078D02*
Y146980D01*
Y152015D02*
Y154114D01*
Y189078D02*
Y186980D01*
Y192015D02*
Y194114D01*
Y229078D02*
Y226980D01*
Y232015D02*
Y234114D01*
Y269078D02*
Y266980D01*
Y272015D02*
Y274114D01*
Y309078D02*
Y306980D01*
Y312015D02*
Y314114D01*
X34847Y30547D02*
X36947D01*
X34847Y70547D02*
X36947D01*
X34847Y110547D02*
X36947D01*
X34847Y150547D02*
X36947D01*
X34847Y190547D02*
X36947D01*
X34847Y230547D02*
X36947D01*
X34847Y270547D02*
X36947D01*
X34847Y310547D02*
X36947D01*
X110953Y332995D02*
X108854D01*
X112421Y325621D02*
Y323521D01*
D02*
D120*
X27473Y30547D03*
Y70547D03*
Y110547D03*
Y150547D03*
Y190547D03*
Y230547D03*
Y270547D03*
Y310547D03*
D02*
D127*
X20920Y26980D02*
Y12798D01*
X113989D01*
Y323521D01*
X108854D01*
Y339597D01*
X25988D01*
Y323521D01*
X20920D01*
Y314114D01*
X35784D01*
X30886Y319012D01*
G75*
G02*
X30250Y320547I1535J1535D01*
G01*
Y323708D01*
X28854D01*
Y334783D01*
X35988D01*
Y323708D01*
X34592D01*
Y321446D01*
X43956Y312082D01*
G75*
G02*
X44592Y310547I-1535J-1535D01*
G01*
Y305547D01*
G75*
G02*
X43956Y304012I-2171J0D01*
G01*
X38956Y299012D01*
G75*
G02*
X37419Y298376I-1535J1535D01*
G01*
X36752D01*
Y296980D01*
X25677D01*
Y304114D01*
X36752D01*
Y302948D01*
X40250Y306446D01*
Y309648D01*
X36947Y312951D01*
Y306980D01*
X20920D01*
Y274114D01*
X36947D01*
Y266980D01*
X20920D01*
Y234114D01*
X36947D01*
Y226980D01*
X20920D01*
Y194114D01*
X36947D01*
Y186980D01*
X20920D01*
Y154114D01*
X36947D01*
Y146980D01*
X20920D01*
Y114114D01*
X36947D01*
Y106980D01*
X20920D01*
Y74114D01*
X36947D01*
Y66980D01*
X20920D01*
Y34114D01*
X36947D01*
Y26980D01*
X20920D01*
X48956Y317082D02*
G75*
G02*
X49592Y315547I-1535J-1535D01*
G01*
Y265547D01*
G75*
G02*
X48956Y264012I-2171J0D01*
G01*
X43956Y259012D01*
G75*
G02*
X42419Y258376I-1535J1535D01*
G01*
X36752D01*
Y256980D01*
X25677D01*
Y264114D01*
X36752D01*
Y262718D01*
X41522D01*
X45250Y266446D01*
Y314648D01*
X40886Y319012D01*
G75*
G02*
X40250Y320547I1535J1535D01*
G01*
Y323708D01*
X38854D01*
Y334783D01*
X45988D01*
Y323708D01*
X44592D01*
Y321446D01*
X48956Y317082D01*
X48854Y334783D02*
X55988D01*
Y323708D01*
X54592D01*
Y225547D01*
G75*
G02*
X53956Y224012I-2171J0D01*
G01*
X48956Y219012D01*
G75*
G02*
X47419Y218376I-1535J1535D01*
G01*
X36752D01*
Y216980D01*
X25677D01*
Y224114D01*
X36752D01*
Y222718D01*
X46522D01*
X50250Y226446D01*
Y323708D01*
X48854D01*
Y334783D01*
X58854D02*
X65988D01*
Y323708D01*
X64592D01*
Y185547D01*
G75*
G02*
X63956Y184012I-2171J0D01*
G01*
X58956Y179012D01*
G75*
G02*
X57419Y178376I-1535J1535D01*
G01*
X36752D01*
Y176980D01*
X25677D01*
Y184114D01*
X36752D01*
Y182718D01*
X56522D01*
X60250Y186446D01*
Y323708D01*
X58854D01*
Y334783D01*
X68854D02*
X75988D01*
Y323708D01*
X74592D01*
Y145547D01*
G75*
G02*
X73956Y144012I-2171J0D01*
G01*
X68956Y139012D01*
G75*
G02*
X67419Y138376I-1535J1535D01*
G01*
X36752D01*
Y136980D01*
X25677D01*
Y144114D01*
X36752D01*
Y142718D01*
X66522D01*
X70250Y146446D01*
Y323708D01*
X68854D01*
Y334783D01*
X78854D02*
X85988D01*
Y323708D01*
X84592D01*
Y105547D01*
G75*
G02*
X83956Y104012I-2171J0D01*
G01*
X78956Y99012D01*
G75*
G02*
X77419Y98376I-1535J1535D01*
G01*
X36752D01*
Y96980D01*
X25677D01*
Y104114D01*
X36752D01*
Y102718D01*
X76522D01*
X80250Y106446D01*
Y323708D01*
X78854D01*
Y334783D01*
X88854D02*
X95988D01*
Y323708D01*
X94592D01*
Y65547D01*
G75*
G02*
X93956Y64012I-2171J0D01*
G01*
X88956Y59012D01*
G75*
G02*
X87419Y58376I-1535J1535D01*
G01*
X36752D01*
Y56980D01*
X25677D01*
Y64114D01*
X36752D01*
Y62718D01*
X86522D01*
X90250Y66446D01*
Y323708D01*
X88854D01*
Y334783D01*
X98854D02*
X105988D01*
Y323708D01*
X104592D01*
Y25547D01*
G75*
G02*
X103956Y24012I-2171J0D01*
G01*
X98956Y19012D01*
G75*
G02*
X97419Y18376I-1535J1535D01*
G01*
X36752D01*
Y16980D01*
X25677D01*
Y24114D01*
X36752D01*
Y22718D01*
X96522D01*
X100250Y26446D01*
Y323708D01*
X98854D01*
Y334783D01*
X21520Y26980D02*
G36*
X21520Y26980D02*
Y13398D01*
X113389D01*
Y295881D01*
X104592D01*
Y25547D01*
G75*
G02*
X103956Y24012I-2172J1D01*
G01*
X98956Y19012D01*
G75*
G02*
X97419Y18376I-1534J1533D01*
G01*
X36752D01*
Y16980D01*
X25677D01*
Y24114D01*
X36752D01*
Y22718D01*
X96522D01*
X100250Y26446D01*
Y295881D01*
X94592D01*
Y65547D01*
G75*
G02*
X93956Y64012I-2172J1D01*
G01*
X88956Y59012D01*
G75*
G02*
X87419Y58376I-1534J1533D01*
G01*
X36752D01*
Y56980D01*
X25677D01*
Y64114D01*
X36752D01*
Y62718D01*
X86522D01*
X90250Y66446D01*
Y295881D01*
X84592D01*
Y105547D01*
G75*
G02*
X83956Y104012I-2172J1D01*
G01*
X78956Y99012D01*
G75*
G02*
X77419Y98376I-1534J1533D01*
G01*
X36752D01*
Y96980D01*
X25677D01*
Y104114D01*
X36752D01*
Y102718D01*
X76522D01*
X80250Y106446D01*
Y295881D01*
X74592D01*
Y145547D01*
G75*
G02*
X73956Y144012I-2172J1D01*
G01*
X68956Y139012D01*
G75*
G02*
X67419Y138376I-1534J1533D01*
G01*
X36752D01*
Y136980D01*
X25677D01*
Y144114D01*
X36752D01*
Y142718D01*
X66522D01*
X70250Y146446D01*
Y295881D01*
X64592D01*
Y185547D01*
G75*
G02*
X63956Y184012I-2172J1D01*
G01*
X58956Y179012D01*
G75*
G02*
X57419Y178376I-1534J1533D01*
G01*
X36752D01*
Y176980D01*
X25677D01*
Y184114D01*
X36752D01*
Y182718D01*
X56522D01*
X60250Y186446D01*
Y295881D01*
X54592D01*
Y225547D01*
G75*
G02*
X53956Y224012I-2172J1D01*
G01*
X48956Y219012D01*
G75*
G02*
X47419Y218376I-1534J1533D01*
G01*
X36752D01*
Y216980D01*
X25677D01*
Y224114D01*
X36752D01*
Y222718D01*
X46522D01*
X50250Y226446D01*
Y295881D01*
X49592D01*
Y265547D01*
G75*
G02*
X48956Y264012I-2172J1D01*
G01*
X43956Y259012D01*
G75*
G02*
X42419Y258376I-1534J1533D01*
G01*
X36752D01*
Y256980D01*
X25677D01*
Y264114D01*
X36752D01*
Y262718D01*
X41522D01*
X45250Y266446D01*
Y295881D01*
X21520D01*
Y274114D01*
X36947D01*
Y266980D01*
X21520D01*
Y234114D01*
X36947D01*
Y226980D01*
X21520D01*
Y194114D01*
X36947D01*
Y186980D01*
X21520D01*
Y154114D01*
X36947D01*
Y146980D01*
X21520D01*
Y114114D01*
X36947D01*
Y106980D01*
X21520D01*
Y74114D01*
X36947D01*
Y66980D01*
X21520D01*
Y34114D01*
X36947D01*
Y26980D01*
X21520D01*
G37*
Y306980D02*
G36*
X21520Y306980D02*
Y295881D01*
X45250D01*
Y314648D01*
X40886Y319012D01*
G75*
G02*
X40250Y320547I1537J1536D01*
G01*
Y323708D01*
X38854D01*
Y334783D01*
X45988D01*
Y323708D01*
X44592D01*
Y321446D01*
X48956Y317082D01*
G75*
G02*
X49592Y315547I-1537J-1536D01*
G01*
Y295881D01*
X50250D01*
Y323708D01*
X48854D01*
Y334783D01*
X55988D01*
Y323708D01*
X54592D01*
Y295881D01*
X60250D01*
Y323708D01*
X58854D01*
Y334783D01*
X65988D01*
Y323708D01*
X64592D01*
Y295881D01*
X70250D01*
Y323708D01*
X68854D01*
Y334783D01*
X75988D01*
Y323708D01*
X74592D01*
Y295881D01*
X80250D01*
Y323708D01*
X78854D01*
Y334783D01*
X85988D01*
Y323708D01*
X84592D01*
Y295881D01*
X90250D01*
Y323708D01*
X88854D01*
Y334783D01*
X95988D01*
Y323708D01*
X94592D01*
Y295881D01*
X100250D01*
Y323708D01*
X98854D01*
Y334783D01*
X105988D01*
Y323708D01*
X104592D01*
Y295881D01*
X113389D01*
Y323521D01*
X108854D01*
Y338997D01*
X25988D01*
Y323521D01*
X21520D01*
Y314114D01*
X35784D01*
X30886Y319012D01*
G75*
G02*
X30250Y320547I1537J1536D01*
G01*
Y323708D01*
X28854D01*
Y334783D01*
X35988D01*
Y323708D01*
X34592D01*
Y321446D01*
X43956Y312082D01*
G75*
G02*
X44592Y310547I-1537J-1536D01*
G01*
Y305547D01*
G75*
G02*
X43956Y304012I-2172J1D01*
G01*
X38956Y299012D01*
G75*
G02*
X37419Y298376I-1534J1533D01*
G01*
X36752D01*
Y296980D01*
X25677D01*
Y304114D01*
X36752D01*
Y302948D01*
X40250Y306446D01*
Y309648D01*
X36947Y312951D01*
Y306980D01*
X21520D01*
G37*
D02*
D129*
X32421Y329246D03*
X42421D03*
X52421D03*
X62421D03*
X72421D03*
X82421D03*
X92421D03*
X102421D03*
D02*
D130*
X22421Y332995D03*
X112421D03*
D02*
D131*
X31215Y20547D03*
Y60547D03*
Y100547D03*
Y140547D03*
Y180547D03*
Y220547D03*
Y260547D03*
Y300547D03*
X0Y0D02*
M02*
