G04 DesignSpark PCB Gerber Version 10.0 Build 5299*
%FSLAX35Y35*%
%MOIN*%
%ADD112R,0.04600X0.12120*%
%ADD123R,0.11411X0.13380*%
%ADD122R,0.15348X0.03537*%
X0Y0D02*
D02*
D112*
X63100Y289655D03*
Y306151D03*
X73100Y289655D03*
Y306151D03*
X83100Y289655D03*
Y306151D03*
X93100Y289655D03*
Y306151D03*
X103100Y289655D03*
Y306151D03*
X113100Y289655D03*
Y306151D03*
X123100Y289655D03*
Y306151D03*
X133100Y289655D03*
Y306151D03*
X143100Y289655D03*
Y306151D03*
X153100Y289655D03*
Y306151D03*
X163100Y289655D03*
Y306151D03*
X173100Y289655D03*
Y306151D03*
X183100Y289655D03*
Y306151D03*
X193100Y289655D03*
Y306151D03*
X203100Y289655D03*
Y306151D03*
X213100Y289655D03*
Y306151D03*
X223100Y289655D03*
Y306151D03*
D02*
D122*
X196850Y39350D03*
Y49350D03*
Y59350D03*
Y69350D03*
Y78741D03*
Y88741D03*
Y98741D03*
Y108741D03*
Y118741D03*
Y128741D03*
Y138741D03*
Y148741D03*
Y213717D03*
Y223717D03*
Y233717D03*
Y243707D03*
D02*
D123*
X123257Y39350D03*
Y59350D03*
Y78741D03*
Y98741D03*
Y118741D03*
Y138741D03*
Y213717D03*
Y233717D03*
X142943Y39350D03*
Y59350D03*
Y78741D03*
Y98741D03*
Y118741D03*
Y138741D03*
Y213717D03*
Y233717D03*
X159507Y49350D03*
Y69350D03*
Y88741D03*
Y108741D03*
Y128741D03*
Y148741D03*
Y223717D03*
Y243717D03*
X179193Y49350D03*
Y69350D03*
Y88741D03*
Y108741D03*
Y128741D03*
Y148741D03*
Y223717D03*
Y243717D03*
X0Y0D02*
M02*
