G04 DesignSpark PCB Gerber Version 10.0 Build 5299*
%FSLAX35Y35*%
%MOIN*%
%ADD117C,0.01000*%
%ADD127C,0.01200*%
%ADD89C,0.03150*%
%ADD110C,0.10512*%
%ADD120R,0.15748X0.03937*%
X0Y0D02*
D02*
D89*
X63100Y280571D03*
Y314935D03*
X73100D03*
X83100D03*
X93100D03*
X103100D03*
X113100D03*
X123100D03*
X133100D03*
X143100D03*
X153100D03*
X163100D03*
X173100D03*
X183100D03*
X193100D03*
X203100D03*
X213100D03*
X223100D03*
D02*
D110*
X68100Y323100D03*
X218100D03*
D02*
D117*
X62025Y280571D02*
X59925D01*
X62025Y314935D02*
X59925D01*
X63100Y279496D02*
Y277396D01*
Y281646D02*
Y283746D01*
Y313860D02*
Y311760D01*
Y316010D02*
Y318110D01*
X64175Y280571D02*
X66275D01*
X64175Y314935D02*
X66275D01*
X72025D02*
X69925D01*
X73100Y313860D02*
Y311760D01*
Y316010D02*
Y318110D01*
X74175Y314935D02*
X76275D01*
X82025D02*
X79925D01*
X83100Y313860D02*
Y311760D01*
Y316010D02*
Y318110D01*
X84175Y314935D02*
X86275D01*
X92025D02*
X89925D01*
X93100Y313860D02*
Y311760D01*
Y316010D02*
Y318110D01*
X94175Y314935D02*
X96275D01*
X102025D02*
X99925D01*
X103100Y313860D02*
Y311760D01*
Y316010D02*
Y318110D01*
X104175Y314935D02*
X106275D01*
X112025D02*
X109925D01*
X113100Y313860D02*
Y311760D01*
Y316010D02*
Y318110D01*
X114175Y314935D02*
X116275D01*
X122025D02*
X119925D01*
X123100Y313860D02*
Y311760D01*
Y316010D02*
Y318110D01*
X124175Y314935D02*
X126275D01*
X132025D02*
X129925D01*
X133100Y313860D02*
Y311760D01*
Y316010D02*
Y318110D01*
X134175Y314935D02*
X136275D01*
X142025D02*
X139925D01*
X143100Y313860D02*
Y311760D01*
Y316010D02*
Y318110D01*
X144175Y314935D02*
X146275D01*
X152025D02*
X149925D01*
X153100Y313860D02*
Y311760D01*
Y316010D02*
Y318110D01*
X154175Y314935D02*
X156275D01*
X162025D02*
X159925D01*
X163100Y313860D02*
Y311760D01*
Y316010D02*
Y318110D01*
X164175Y314935D02*
X166275D01*
X172025D02*
X169925D01*
X173100Y313860D02*
Y311760D01*
Y316010D02*
Y318110D01*
X174175Y314935D02*
X176275D01*
X182025D02*
X179925D01*
X183100Y313860D02*
Y311760D01*
Y316010D02*
Y318110D01*
X184175Y314935D02*
X186275D01*
X189446Y243707D02*
X187346D01*
X189476Y39350D02*
X187378D01*
X189476Y49350D02*
X187378D01*
X189476Y59350D02*
X187378D01*
X189476Y69350D02*
X187378D01*
X189476Y78741D02*
X187378D01*
X189476Y88741D02*
X187378D01*
X189476Y98741D02*
X187378D01*
X189476Y108741D02*
X187378D01*
X189476Y118741D02*
X187378D01*
X189476Y128741D02*
X187378D01*
X189476Y138741D02*
X187378D01*
X189476Y148741D02*
X187378D01*
X189476Y213741D02*
X187378D01*
X189476Y223741D02*
X187378D01*
X189476Y233741D02*
X187378D01*
X192025Y314935D02*
X189925D01*
X193100Y313860D02*
Y311760D01*
Y316010D02*
Y318110D01*
X194175Y314935D02*
X196275D01*
X196820Y242239D02*
Y240137D01*
Y245176D02*
Y247275D01*
X196850Y37881D02*
Y35783D01*
Y40819D02*
Y42917D01*
Y47881D02*
Y45783D01*
Y50819D02*
Y52917D01*
Y57881D02*
Y55783D01*
Y60819D02*
Y62917D01*
Y67881D02*
Y65783D01*
Y70819D02*
Y72917D01*
Y77272D02*
Y75173D01*
Y80209D02*
Y82311D01*
Y87272D02*
Y85173D01*
Y90209D02*
Y92311D01*
Y97272D02*
Y95173D01*
Y100209D02*
Y102311D01*
Y107272D02*
Y105173D01*
Y110209D02*
Y112311D01*
Y117272D02*
Y115173D01*
Y120209D02*
Y122311D01*
Y127272D02*
Y125173D01*
Y130209D02*
Y132311D01*
Y137272D02*
Y135173D01*
Y140209D02*
Y142311D01*
Y147272D02*
Y145173D01*
Y150209D02*
Y152311D01*
Y212272D02*
Y210173D01*
Y215209D02*
Y217311D01*
Y222272D02*
Y220173D01*
Y225209D02*
Y227311D01*
Y232272D02*
Y230173D01*
Y235209D02*
Y237311D01*
X202025Y314935D02*
X199925D01*
X203100Y313860D02*
Y311760D01*
Y316010D02*
Y318110D01*
X204175Y314935D02*
X206275D01*
X212025D02*
X209925D01*
X213100Y313860D02*
Y311760D01*
Y316010D02*
Y318110D01*
X214175Y314935D02*
X216275D01*
X222025D02*
X219925D01*
X223100Y313860D02*
Y311760D01*
Y316010D02*
Y318110D01*
X224175Y314935D02*
X226275D01*
D02*
D120*
X196820Y243707D03*
X196850Y39350D03*
Y49350D03*
Y59350D03*
Y69350D03*
Y78741D03*
Y88741D03*
Y98741D03*
Y108741D03*
Y118741D03*
Y128741D03*
Y138741D03*
Y148741D03*
Y213741D03*
Y223741D03*
Y233741D03*
D02*
D127*
X50317Y368400D02*
Y276523D01*
X65600D01*
G75*
G02*
X67157Y275877I0J-2200D01*
G01*
X75904Y267130D01*
G75*
G02*
X76550Y265573I-1554J-1557D01*
G01*
Y71511D01*
X117761Y30300D01*
X203368D01*
Y35783D01*
X187378D01*
Y42917D01*
X203368D01*
Y45783D01*
X187378D01*
Y52917D01*
X203368D01*
Y55783D01*
X187378D01*
Y62917D01*
X203368D01*
Y65783D01*
X187378D01*
Y72917D01*
X203368D01*
Y75173D01*
X187378D01*
Y82311D01*
X203368D01*
Y85173D01*
X187378D01*
Y92311D01*
X203368D01*
Y95173D01*
X187378D01*
Y102311D01*
X203368D01*
Y105173D01*
X187378D01*
Y112311D01*
X203368D01*
Y115173D01*
X187378D01*
Y122311D01*
X203368D01*
Y125173D01*
X187378D01*
Y132311D01*
X203368D01*
Y135173D01*
X187378D01*
Y142311D01*
X203368D01*
Y145173D01*
X187378D01*
Y152311D01*
X203368D01*
Y210173D01*
X187378D01*
Y217311D01*
X203368D01*
Y220173D01*
X187378D01*
Y227311D01*
X203368D01*
Y230173D01*
X187378D01*
Y237311D01*
X203368D01*
Y240137D01*
X187346D01*
Y247275D01*
X203368D01*
Y257453D01*
G75*
G02*
X205568Y259653I2200J0D01*
G01*
X235857D01*
Y368400D01*
X50317D01*
X59925Y280571D02*
G75*
G02*
X66275I3175J0D01*
G01*
G75*
G02*
X59925I-3175J0D01*
G01*
X72785Y318094D02*
G75*
G02*
X76275Y314935I315J-3159D01*
G01*
G75*
G02*
X69925I-3175J0D01*
G01*
G75*
G02*
X70430Y316652I3175J0D01*
G01*
G75*
G02*
X65770I-2330J6448D01*
G01*
G75*
G02*
X66275Y314935I-2670J-1717D01*
G01*
G75*
G02*
X59925I-3175J0D01*
G01*
G75*
G02*
X63415Y318094I3175J0D01*
G01*
G75*
G02*
X68100Y329956I4685J5006D01*
G01*
G75*
G02*
X72785Y318094I0J-6856D01*
G01*
X79925Y314935D02*
G75*
G02*
X86275I3175J0D01*
G01*
G75*
G02*
X79925I-3175J0D01*
G01*
X89925D02*
G75*
G02*
X96275I3175J0D01*
G01*
G75*
G02*
X89925I-3175J0D01*
G01*
X99925D02*
G75*
G02*
X106275I3175J0D01*
G01*
G75*
G02*
X99925I-3175J0D01*
G01*
X109925D02*
G75*
G02*
X116275I3175J0D01*
G01*
G75*
G02*
X109925I-3175J0D01*
G01*
X119602Y179353D02*
G75*
G02*
X136582I8490J0D01*
G01*
G75*
G02*
X119602I-8490J0D01*
G01*
X119925Y314935D02*
G75*
G02*
X126275I3175J0D01*
G01*
G75*
G02*
X119925I-3175J0D01*
G01*
X129925D02*
G75*
G02*
X136275I3175J0D01*
G01*
G75*
G02*
X129925I-3175J0D01*
G01*
X139925D02*
G75*
G02*
X146275I3175J0D01*
G01*
G75*
G02*
X139925I-3175J0D01*
G01*
X149925D02*
G75*
G02*
X156275I3175J0D01*
G01*
G75*
G02*
X149925I-3175J0D01*
G01*
X159925D02*
G75*
G02*
X166275I3175J0D01*
G01*
G75*
G02*
X159925I-3175J0D01*
G01*
X169925D02*
G75*
G02*
X176275I3175J0D01*
G01*
G75*
G02*
X169925I-3175J0D01*
G01*
X179925D02*
G75*
G02*
X186275I3175J0D01*
G01*
G75*
G02*
X179925I-3175J0D01*
G01*
X189925D02*
G75*
G02*
X196275I3175J0D01*
G01*
G75*
G02*
X189925I-3175J0D01*
G01*
X199925D02*
G75*
G02*
X206275I3175J0D01*
G01*
G75*
G02*
X199925I-3175J0D01*
G01*
X222785Y318094D02*
G75*
G02*
X226275Y314935I315J-3159D01*
G01*
G75*
G02*
X219925I-3175J0D01*
G01*
G75*
G02*
X220430Y316652I3175J0D01*
G01*
G75*
G02*
X215770I-2330J6448D01*
G01*
G75*
G02*
X216275Y314935I-2670J-1717D01*
G01*
G75*
G02*
X209925I-3175J0D01*
G01*
G75*
G02*
X213415Y318094I3175J0D01*
G01*
G75*
G02*
X218100Y329956I4685J5006D01*
G01*
G75*
G02*
X222785Y318094I0J-6856D01*
G01*
X76550Y179353D02*
G36*
X76550Y179353D02*
Y71511D01*
X117161Y30900D01*
X203368D01*
Y35783D01*
X187378D01*
Y42917D01*
X203368D01*
Y45783D01*
X187378D01*
Y52917D01*
X203368D01*
Y55783D01*
X187378D01*
Y62917D01*
X203368D01*
Y65783D01*
X187378D01*
Y72917D01*
X203368D01*
Y75173D01*
X187378D01*
Y82311D01*
X203368D01*
Y85173D01*
X187378D01*
Y92311D01*
X203368D01*
Y95173D01*
X187378D01*
Y102311D01*
X203368D01*
Y105173D01*
X187378D01*
Y112311D01*
X203368D01*
Y115173D01*
X187378D01*
Y122311D01*
X203368D01*
Y125173D01*
X187378D01*
Y132311D01*
X203368D01*
Y135173D01*
X187378D01*
Y142311D01*
X203368D01*
Y145173D01*
X187378D01*
Y152311D01*
X203368D01*
Y179353D01*
X136582D01*
G75*
G02*
X119602I-8490J0D01*
G01*
X76550D01*
G37*
X50917Y280571D02*
G36*
X50917Y280571D02*
Y276523D01*
X65600D01*
G75*
G02*
X67157Y275877I1J-2199D01*
G01*
X75904Y267130D01*
G75*
G02*
X76550Y265574I-1553J-1557D01*
G01*
G75*
G02*
Y265573I-2820J0D01*
G01*
Y179353D01*
X119602D01*
G75*
G02*
X136582I8490J0D01*
G01*
X203368D01*
Y210173D01*
X187378D01*
Y217311D01*
X203368D01*
Y220173D01*
X187378D01*
Y227311D01*
X203368D01*
Y230173D01*
X187378D01*
Y237311D01*
X203368D01*
Y240137D01*
X187346D01*
Y247275D01*
X203368D01*
Y257453D01*
G75*
G02*
X205568Y259653I2200J0D01*
G01*
X235257D01*
Y280571D01*
X66275D01*
G75*
G02*
X59925I-3175J0D01*
G01*
X50917D01*
G37*
Y314935D02*
G36*
X50917Y314935D02*
Y280571D01*
X59925D01*
G75*
G02*
X66275I3175J0D01*
G01*
X235257D01*
Y314935D01*
X226275D01*
G75*
G02*
X219925I-3175J0D01*
G01*
X216275D01*
G75*
G02*
X209925I-3175J0D01*
G01*
X206275D01*
G75*
G02*
X199925I-3175J0D01*
G01*
X196275D01*
G75*
G02*
X189925I-3175J0D01*
G01*
X186275D01*
G75*
G02*
X179925I-3175J0D01*
G01*
X176275D01*
G75*
G02*
X169925I-3175J0D01*
G01*
X166275D01*
G75*
G02*
X159925I-3175J0D01*
G01*
X156275D01*
G75*
G02*
X149925I-3175J0D01*
G01*
X146275D01*
G75*
G02*
X139925I-3175J0D01*
G01*
X136275D01*
G75*
G02*
X129925I-3175J0D01*
G01*
X126275D01*
G75*
G02*
X119925I-3175J0D01*
G01*
X116275D01*
G75*
G02*
X109925I-3175J0D01*
G01*
X106275D01*
G75*
G02*
X99925I-3175J0D01*
G01*
X96275D01*
G75*
G02*
X89925I-3175J0D01*
G01*
X86275D01*
G75*
G02*
X79925I-3175J0D01*
G01*
X76275D01*
G75*
G02*
X69925I-3175J0D01*
G01*
X66275D01*
G75*
G02*
X59925I-3175J0D01*
G01*
X50917D01*
G37*
Y320858D02*
G36*
X50917Y320858D02*
Y314935D01*
X59925D01*
Y314935D01*
G75*
G02*
X63415Y318094I3174J0D01*
G01*
G75*
G02*
X61621Y320858I4685J5006D01*
G01*
X50917D01*
G37*
X65770Y316652D02*
G36*
X65770Y316652D02*
G75*
G02*
X66275Y314935I-2670J-1717D01*
G01*
X69925D01*
G75*
G02*
X70430Y316652I3175J0D01*
G01*
G75*
G02*
X65770I-2330J6448D01*
G01*
G37*
X74579Y320858D02*
G36*
X74579Y320858D02*
G75*
G02*
X72785Y318094I-6479J2243D01*
G01*
G75*
G02*
X76275Y314935I316J-3159D01*
G01*
Y314935D01*
X79925D01*
G75*
G02*
X86275I3175J0D01*
G01*
X89925D01*
G75*
G02*
X96275I3175J0D01*
G01*
X99925D01*
G75*
G02*
X106275I3175J0D01*
G01*
X109925D01*
G75*
G02*
X116275I3175J0D01*
G01*
X119925D01*
G75*
G02*
X126275I3175J0D01*
G01*
X129925D01*
G75*
G02*
X136275I3175J0D01*
G01*
X139925D01*
G75*
G02*
X146275I3175J0D01*
G01*
X149925D01*
G75*
G02*
X156275I3175J0D01*
G01*
X159925D01*
G75*
G02*
X166275I3175J0D01*
G01*
X169925D01*
G75*
G02*
X176275I3175J0D01*
G01*
X179925D01*
G75*
G02*
X186275I3175J0D01*
G01*
X189925D01*
G75*
G02*
X196275I3175J0D01*
G01*
X199925D01*
G75*
G02*
X206275I3175J0D01*
G01*
X209925D01*
Y314935D01*
G75*
G02*
X213415Y318094I3174J0D01*
G01*
G75*
G02*
X211621Y320858I4685J5006D01*
G01*
X74579D01*
G37*
X215770Y316652D02*
G36*
X215770Y316652D02*
G75*
G02*
X216275Y314935I-2670J-1717D01*
G01*
X219925D01*
G75*
G02*
X220430Y316652I3175J0D01*
G01*
G75*
G02*
X215770I-2330J6448D01*
G01*
G37*
X224579Y320858D02*
G36*
X224579Y320858D02*
G75*
G02*
X222785Y318094I-6479J2243D01*
G01*
G75*
G02*
X226275Y314935I316J-3159D01*
G01*
Y314935D01*
X235257D01*
Y320858D01*
X224579D01*
G37*
X50917Y367800D02*
G36*
X50917Y367800D02*
Y320858D01*
X61621D01*
G75*
G02*
X61244Y323100I6480J2241D01*
G01*
G75*
G02*
X68100Y329956I6856J0D01*
G01*
G75*
G02*
X74956Y323100I0J-6856D01*
G01*
G75*
G02*
X74579Y320858I-6856J-1D01*
G01*
X211621D01*
G75*
G02*
X211244Y323100I6480J2241D01*
G01*
G75*
G02*
X218100Y329956I6856J0D01*
G01*
G75*
G02*
X224956Y323100I0J-6856D01*
G01*
G75*
G02*
X224579Y320858I-6856J-1D01*
G01*
X235257D01*
Y367800D01*
X50917D01*
G37*
X0Y0D02*
M02*
