G04 DesignSpark PCB Gerber Version 10.0 Build 5299*
%FSLAX35Y35*%
%MOIN*%
%ADD85C,0.00394*%
%ADD127C,0.01200*%
X0Y0D02*
D02*
D85*
X54163Y332293D02*
X232470D01*
Y279458D01*
X54163D01*
Y332293D01*
X113415Y53130D02*
X152785D01*
Y25570D01*
X113415D01*
Y53130D01*
Y73130D02*
X152785D01*
Y45570D01*
X113415D01*
Y73130D01*
Y92520D02*
X152785D01*
Y64961D01*
X113415D01*
Y92520D01*
Y112520D02*
X152785D01*
Y84961D01*
X113415D01*
Y112520D01*
Y132520D02*
X152785D01*
Y104961D01*
X113415D01*
Y132520D01*
Y152520D02*
X152785D01*
Y124961D01*
X113415D01*
Y152520D01*
Y227496D02*
X152785D01*
Y199937D01*
X113415D01*
Y227496D01*
Y247496D02*
X152785D01*
Y219937D01*
X113415D01*
Y247496D01*
X149665Y63130D02*
X189035D01*
Y35570D01*
X149665D01*
Y63130D01*
Y83130D02*
X189035D01*
Y55570D01*
X149665D01*
Y83130D01*
Y102520D02*
X189035D01*
Y74961D01*
X149665D01*
Y102520D01*
Y122520D02*
X189035D01*
Y94961D01*
X149665D01*
Y122520D01*
Y142520D02*
X189035D01*
Y114961D01*
X149665D01*
Y142520D01*
Y162520D02*
X189035D01*
Y134961D01*
X149665D01*
Y162520D01*
Y237496D02*
X189035D01*
Y209937D01*
X149665D01*
Y237496D01*
Y257496D02*
X189035D01*
Y229937D01*
X149665D01*
Y257496D01*
D02*
D127*
X49350Y328100D02*
X237539D01*
Y370620D01*
X49350D01*
Y328100D01*
X242969Y251830D02*
Y121246D01*
X205568D01*
Y251830D01*
X242969D01*
X0Y0D02*
M02*
